<?xml version="1.0" encoding="UTF-8" standalone="no"?>
<svg
   xmlns:dc="http://purl.org/dc/elements/1.1/"
   xmlns:cc="http://creativecommons.org/ns#"
   xmlns:rdf="http://www.w3.org/1999/02/22-rdf-syntax-ns#"
   xmlns:svg="http://www.w3.org/2000/svg"
   xmlns="http://www.w3.org/2000/svg"
   xmlns:sodipodi="http://sodipodi.sourceforge.net/DTD/sodipodi-0.dtd"
   xmlns:inkscape="http://www.inkscape.org/namespaces/inkscape"
   width="210mm"
   height="297mm"
   viewBox="0 0 210 297"
   version="1.1"
   id="svg57"
   inkscape:version="1.0.1 (3bc2e813f5, 2020-09-07)"
   sodipodi:docname="logo_witte cirkel.svg"
   inkscape:export-filename="C:\Users\lisaa\Documents\Weddingplanner\Lisa_Julien\logo.png"
   inkscape:export-xdpi="96"
   inkscape:export-ydpi="96">
  <defs
     id="defs51">
    <inkscape:path-effect
       effect="powerstroke"
       id="path-effect263"
       is_visible="true"
       lpeversion="1"
       offset_points="0.043332388,1.1527623"
       sort_points="true"
       interpolator_type="CubicBezierJohan"
       interpolator_beta="0.2"
       start_linecap_type="zerowidth"
       linejoin_type="extrp_arc"
       miter_limit="4"
       scale_width="1"
       end_linecap_type="zerowidth" />
    <inkscape:path-effect
       effect="bspline"
       id="path-effect261"
       is_visible="true"
       lpeversion="1"
       weight="33.333333"
       steps="2"
       helper_size="0"
       apply_no_weight="true"
       apply_with_weight="true"
       only_selected="false" />
    <inkscape:path-effect
       effect="powerstroke"
       id="path-effect257"
       is_visible="true"
       lpeversion="1"
       offset_points="0,1.68914"
       sort_points="true"
       interpolator_type="CubicBezierJohan"
       interpolator_beta="0.2"
       start_linecap_type="zerowidth"
       linejoin_type="extrp_arc"
       miter_limit="4"
       scale_width="1"
       end_linecap_type="zerowidth" />
    <inkscape:path-effect
       effect="powerstroke"
       id="path-effect251"
       is_visible="true"
       lpeversion="1"
       offset_points="0,1.68914"
       sort_points="true"
       interpolator_type="CubicBezierJohan"
       interpolator_beta="0.2"
       start_linecap_type="zerowidth"
       linejoin_type="extrp_arc"
       miter_limit="4"
       scale_width="1"
       end_linecap_type="zerowidth" />
    <inkscape:path-effect
       effect="powerstroke"
       id="path-effect245"
       is_visible="true"
       lpeversion="1"
       offset_points="0,1.68914"
       sort_points="true"
       interpolator_type="CubicBezierJohan"
       interpolator_beta="0.2"
       start_linecap_type="zerowidth"
       linejoin_type="extrp_arc"
       miter_limit="4"
       scale_width="1"
       end_linecap_type="zerowidth" />
    <inkscape:path-effect
       effect="powerstroke"
       id="path-effect239"
       is_visible="true"
       lpeversion="1"
       offset_points="0,1.68914"
       sort_points="true"
       interpolator_type="CubicBezierJohan"
       interpolator_beta="0.2"
       start_linecap_type="zerowidth"
       linejoin_type="extrp_arc"
       miter_limit="4"
       scale_width="1"
       end_linecap_type="zerowidth" />
    <inkscape:path-effect
       effect="powerstroke"
       id="path-effect233"
       is_visible="true"
       lpeversion="1"
       offset_points="0,1.68914"
       sort_points="true"
       interpolator_type="CubicBezierJohan"
       interpolator_beta="0.2"
       start_linecap_type="zerowidth"
       linejoin_type="extrp_arc"
       miter_limit="4"
       scale_width="1"
       end_linecap_type="zerowidth" />
    <inkscape:path-effect
       effect="bspline"
       id="path-effect231"
       is_visible="true"
       lpeversion="1"
       weight="33.333333"
       steps="2"
       helper_size="0"
       apply_no_weight="true"
       apply_with_weight="true"
       only_selected="false" />
    <inkscape:path-effect
       effect="powerstroke"
       id="path-effect227"
       is_visible="true"
       lpeversion="1"
       offset_points="0,1.68914"
       sort_points="true"
       interpolator_type="CubicBezierJohan"
       interpolator_beta="0.2"
       start_linecap_type="zerowidth"
       linejoin_type="extrp_arc"
       miter_limit="4"
       scale_width="1"
       end_linecap_type="zerowidth" />
    <inkscape:path-effect
       effect="powerstroke"
       id="path-effect221"
       is_visible="true"
       lpeversion="1"
       offset_points="0,1.68914"
       sort_points="true"
       interpolator_type="CubicBezierJohan"
       interpolator_beta="0.2"
       start_linecap_type="zerowidth"
       linejoin_type="extrp_arc"
       miter_limit="4"
       scale_width="1"
       end_linecap_type="zerowidth" />
    <inkscape:path-effect
       effect="powerstroke"
       id="path-effect215"
       is_visible="true"
       lpeversion="1"
       offset_points="0,1.68914"
       sort_points="true"
       interpolator_type="CubicBezierJohan"
       interpolator_beta="0.2"
       start_linecap_type="zerowidth"
       linejoin_type="extrp_arc"
       miter_limit="4"
       scale_width="1"
       end_linecap_type="zerowidth" />
    <inkscape:path-effect
       effect="bspline"
       id="path-effect213"
       is_visible="true"
       lpeversion="1"
       weight="33.333333"
       steps="2"
       helper_size="0"
       apply_no_weight="true"
       apply_with_weight="true"
       only_selected="false" />
    <inkscape:path-effect
       effect="powerstroke"
       id="path-effect145"
       is_visible="true"
       lpeversion="1"
       offset_points="0.0016808578,1.6891449"
       sort_points="true"
       interpolator_type="CubicBezierJohan"
       interpolator_beta="0.2"
       start_linecap_type="zerowidth"
       linejoin_type="extrp_arc"
       miter_limit="4"
       scale_width="1"
       end_linecap_type="zerowidth" />
    <inkscape:path-effect
       effect="bspline"
       id="path-effect143"
       is_visible="true"
       lpeversion="1"
       weight="33.333333"
       steps="2"
       helper_size="0"
       apply_no_weight="true"
       apply_with_weight="true"
       only_selected="false" />
    <inkscape:path-effect
       effect="powerstroke"
       id="path-effect139"
       is_visible="true"
       lpeversion="1"
       offset_points="0,0.1322915"
       sort_points="true"
       interpolator_type="CubicBezierJohan"
       interpolator_beta="0.2"
       start_linecap_type="zerowidth"
       linejoin_type="extrp_arc"
       miter_limit="4"
       scale_width="1"
       end_linecap_type="zerowidth" />
    <inkscape:path-effect
       effect="powerstroke"
       id="path-effect133"
       is_visible="true"
       lpeversion="1"
       offset_points="0,0.1322915"
       sort_points="true"
       interpolator_type="CubicBezierJohan"
       interpolator_beta="0.2"
       start_linecap_type="zerowidth"
       linejoin_type="extrp_arc"
       miter_limit="4"
       scale_width="1"
       end_linecap_type="zerowidth" />
    <inkscape:path-effect
       effect="powerstroke"
       id="path-effect127"
       is_visible="true"
       lpeversion="1"
       offset_points="0,0.1322915"
       sort_points="true"
       interpolator_type="CubicBezierJohan"
       interpolator_beta="0.2"
       start_linecap_type="zerowidth"
       linejoin_type="extrp_arc"
       miter_limit="4"
       scale_width="1"
       end_linecap_type="zerowidth" />
    <inkscape:path-effect
       effect="powerstroke"
       id="path-effect121"
       is_visible="true"
       lpeversion="1"
       offset_points="0,0.1322915"
       sort_points="true"
       interpolator_type="CubicBezierJohan"
       interpolator_beta="0.2"
       start_linecap_type="zerowidth"
       linejoin_type="extrp_arc"
       miter_limit="4"
       scale_width="1"
       end_linecap_type="zerowidth" />
    <inkscape:path-effect
       effect="powerstroke"
       id="path-effect115"
       is_visible="true"
       lpeversion="1"
       offset_points="0,0.1322915"
       sort_points="true"
       interpolator_type="CubicBezierJohan"
       interpolator_beta="0.2"
       start_linecap_type="zerowidth"
       linejoin_type="extrp_arc"
       miter_limit="4"
       scale_width="1"
       end_linecap_type="zerowidth" />
    <inkscape:path-effect
       effect="powerstroke"
       id="path-effect109"
       is_visible="true"
       lpeversion="1"
       offset_points="0,0.1322915"
       sort_points="true"
       interpolator_type="CubicBezierJohan"
       interpolator_beta="0.2"
       start_linecap_type="zerowidth"
       linejoin_type="extrp_arc"
       miter_limit="4"
       scale_width="1"
       end_linecap_type="zerowidth" />
    <rect
       x="46.869048"
       y="97.328869"
       width="48.191964"
       height="70.114583"
       id="rect101" />
    <rect
       x="51.782738"
       y="126.05506"
       width="75.595238"
       height="25.513393"
       id="rect95" />
    <inkscape:path-effect
       effect="powerstroke"
       id="path-effect79"
       is_visible="true"
       lpeversion="1"
       offset_points="0,0.1322915"
       sort_points="true"
       interpolator_type="CubicBezierJohan"
       interpolator_beta="0.2"
       start_linecap_type="zerowidth"
       linejoin_type="extrp_arc"
       miter_limit="4"
       scale_width="1"
       end_linecap_type="zerowidth" />
    <inkscape:path-effect
       effect="simplify"
       id="path-effect77"
       is_visible="true"
       lpeversion="1"
       steps="1"
       threshold="0.000408163"
       smooth_angles="360"
       helper_size="0"
       simplify_individual_paths="false"
       simplify_just_coalesce="false" />
  </defs>
  <sodipodi:namedview
     id="base"
     pagecolor="#ffffff"
     bordercolor="#666666"
     borderopacity="1.0"
     inkscape:pageopacity="0.0"
     inkscape:pageshadow="2"
     inkscape:zoom="1.0841617"
     inkscape:cx="224.81581"
     inkscape:cy="529.68683"
     inkscape:document-units="mm"
     inkscape:current-layer="layer1"
     inkscape:document-rotation="0"
     showgrid="false"
     inkscape:window-width="1920"
     inkscape:window-height="986"
     inkscape:window-x="-11"
     inkscape:window-y="-11"
     inkscape:window-maximized="1"
     inkscape:snap-global="false" />
  <metadata
     id="metadata54">
    <rdf:RDF>
      <cc:Work
         rdf:about="">
        <dc:format>image/svg+xml</dc:format>
        <dc:type
           rdf:resource="http://purl.org/dc/dcmitype/StillImage" />
        <dc:title></dc:title>
      </cc:Work>
    </rdf:RDF>
  </metadata>
  <g
     inkscape:label="Laag 1"
     inkscape:groupmode="layer"
     id="layer1">
    <text
       xml:space="preserve"
       id="text93"
       style="font-style:normal;font-weight:normal;font-size:10.5833px;line-height:1.25;font-family:sans-serif;white-space:pre;shape-inside:url(#rect95);fill:#000000;fill-opacity:1;stroke:none;"
       transform="translate(30.174757,-40.852253)" />
    <path
       id="path177"
       style="mix-blend-mode:darken;fill:#ffffff;fill-opacity:1;fill-rule:nonzero;stroke:none;stroke-width:14.7701;stroke-miterlimit:4;stroke-dasharray:none;stroke-opacity:1;paint-order:markers fill stroke"
       d="m 95.793221,75.19232 c -0.489664,0.012 -0.992639,0.0563 -1.469162,0.185 -0.590955,0.15957 -1.150088,0.42949 -1.68982,0.71882 -1.953969,1.04745 -3.703936,2.62123 -5.019331,4.40645 -1.339458,1.81789 -1.744863,2.89943 -2.736267,4.94078 -0.353629,0.89511 -0.7272,1.78281 -1.060916,2.68563 -0.730057,1.97504 -1.174782,3.38958 -1.674318,5.44617 -0.644049,2.65153 -1.092377,5.3469 -1.529104,8.04034 -0.838837,-0.0826 -1.433137,-0.19276 -2.547137,-0.36587 -1.93747,-0.39776 -3.85328,-0.83328 -5.75934,-1.36632 -0.66628,-0.18633 -3.02739,-0.52698 -3.7269,-0.71056 -3.88426,-0.70015 -8.18558,-0.58448 -11.10888,-0.54208 -7.14277,0.70686 -12.67434,1.63903 -20.3112,2.82944 -1.40845,0.21954 -4.40318,0.60989 -10.74876,1.61034 -6.34557,1.00044 -8.21785,0.95068 -16.7916902,0.90277 6.2802902,1.6257 23.8281202,-1.25301 30.1369702,-2.26677 6.09657,-0.99445 13.08157,-2.18526 18.34978,-2.58847 2.58988,-0.11304 4.88219,0.0154 7.55458,0.26096 1.7937,-0.0209 3.59948,0.38876 5.38158,0.69919 2.01609,0.35118 4.06251,0.91083 5.99705,1.31413 1.16697,0.21227 2.35016,0.36522 3.537774,0.44545 -0.0783,0.48345 -0.1567,0.96706 -0.235646,1.45004 -0.904048,6.35822 -1.859588,12.7155 -3.179658,19.00246 -0.26722,1.27268 -0.57708,2.53593 -0.86557,3.8039 -0.19749,0.8273 -0.41203,1.6502 -0.64183,2.46807 -1.22657,-1.43479 -2.44118,-2.69969 -4.06125,-3.51245 -1.58755,-0.68287 -2.55899,-1.02161 -4.27415,-0.83096 -2.2752,0.0703 -5.97528,2.35854 -7.28173,4.07779 -0.61693,1.10348 -0.92729,1.50641 -1.27383,2.74195 -0.44295,1.57931 -0.45986,3.32785 -0.17259,4.93613 0.0979,0.54831 0.28421,1.07698 0.42633,1.61541 0.74571,2.21317 1.66462,5.05339 3.92069,6.18825 0.31305,0.15747 1.09201,0.45656 1.67225,0.50333 0.83028,0.0669 1.33782,0.0154 2.47737,-0.32763 1.80177,-0.5423 3.21314,-1.87666 4.36355,-3.31246 0.33649,-0.51017 0.69871,-1.00409 1.00924,-1.53065 0.73427,-1.24505 1.365,-2.62813 1.91462,-3.95997 0.64385,-1.56019 1.20618,-3.15046 1.70325,-4.76146 0.59643,0.71683 0.91876,1.0889 1.59835,1.87895 1.72333,1.84024 3.628708,3.55893 5.757791,4.91701 0.508543,0.32439 1.041551,0.60877 1.56218,0.91313 2.521709,1.24918 5.265346,2.11583 8.072376,2.39365 1.892898,0.18736 3.627237,0.18049 5.541771,0.002 2.754796,-0.32428 5.565746,-0.91611 7.927676,-2.46289 1.30201,-0.85267 1.65949,-1.33532 2.71818,-2.42466 0.24139,-0.30122 0.4686,-0.61154 0.68368,-0.92863 -0.0211,1.1347 -0.0186,2.27001 -0.0191,3.40134 0.0992,3.20695 0.30981,6.40803 0.50074,9.61027 -1.87836,1.05571 -3.7104,2.18861 -5.40018,3.53932 -2.52758,1.96943 -5.039236,3.97306 -7.251745,6.30556 -2.559248,2.93931 -4.801973,5.98169 -6.370153,9.59063 -0.313679,0.7898 -0.658542,1.56792 -0.941543,2.36936 -1.732243,4.90555 -2.525917,10.09746 -2.420525,15.29829 0.184044,7.05326 0.131241,15.88961 9.461955,17.58756 3.568831,0.49826 9.061581,-2.76556 11.485071,-12.67313 1.99499,-6.59352 2.6888,-14.16786 2.8174,-20.24683 0.0316,-1.77889 0.0927,-4.77221 0.0935,-6.54327 0.002,-3.77116 -0.12693,-7.54173 -0.25993,-11.3099 -0.0581,-1.26933 -0.12594,-2.53837 -0.19637,-3.807 1.54496,-0.8685 3.12142,-1.68498 4.68136,-2.51871 5.2164,-2.71357 10.56132,-5.16127 15.91945,-7.57473 5.4245,-2.39382 13.2538,-5.13129 16.67339,-6.16448 3.41959,-1.03321 2.48499,-0.74837 3.65508,-1.08624 4.50406,-1.22265 8.93965,-2.0938 13.57746,-2.62052 2.63055,-0.29874 4.25419,-0.37747 6.87762,-0.55293 6.94789,-0.31392 2.49431,0.22848 9.22149,0.38383 -6.64005,-0.48691 -3.93101,-0.82862 -10.17699,-0.52961 -2.5895,0.17646 -4.27937,0.26276 -6.87555,0.56017 -4.63546,0.53098 -10.89935,1.86174 -13.71389,2.70836 -2.30694,0.69393 -2.35365,0.63499 -3.51089,1.01596 -5.63314,1.85439 -11.25807,3.77817 -16.68839,6.17379 -5.37279,2.42419 -10.74192,4.8632 -15.97939,7.57473 -1.22972,0.65861 -2.47033,1.30507 -3.69796,1.97455 -0.16964,-3.0207 -0.34877,-6.04052 -0.45062,-9.06456 0.002,-1.78514 5.3e-4,-3.58293 0.1049,-5.37073 0.51599,-1.11289 0.88358,-2.29276 1.08366,-3.52227 0.0795,-1.01758 0.0649,-1.98542 -1.5012,-1.19217 -0.18546,0.094 -0.12858,0.39715 -0.19276,0.59583 -0.23484,1.33737 -0.36131,2.68788 -0.43305,4.04265 -0.47173,1.02842 -1.07458,1.99806 -1.79472,2.89233 -1.06473,1.09056 -1.39408,1.54478 -2.70681,2.39416 -2.36062,1.5274 -5.16082,1.8339 -7.906481,2.14406 -0.41662,0.0317 -0.832233,0.0946 -1.250053,0.0956 -3.604119,0.009 -7.099437,-0.56196 -10.326502,-2.17041 -0.517207,-0.30183 -1.04639,-0.584 -1.551842,-0.90537 -2.124204,-1.35052 -4.024437,-3.05751 -5.742806,-4.89169 -0.7552,-0.87185 -1.03774,-1.18843 -1.78438,-2.09135 -0.19833,-0.2345 -0.38534,-0.45732 -0.57775,-0.68729 0.31686,-1.09105 0.60537,-2.19092 0.86662,-3.29799 0.28724,-1.26904 0.59501,-2.53388 0.86144,-3.80752 1.31582,-6.2901 2.287394,-12.64573 3.204977,-19.00453 0.07816,-0.4722 0.155975,-0.94492 0.233577,-1.41748 1.339429,0.0417 2.680658,-0.0178 4.007506,-0.21859 1.60937,-0.24359 2.015588,-0.44887 3.548105,-0.95498 2.445223,-0.95185 4.790389,-2.21518 6.902421,-3.78427 1.35654,-1.00782 1.967182,-1.62491 3.203412,-2.75797 1.902286,-1.95452 3.692596,-4.14353 4.599196,-6.76341 0.13889,-0.40135 0.22981,-0.81837 0.34469,-1.22732 0.0664,-0.39684 0.17213,-0.78858 0.19895,-1.1901 0.11727,-1.7559 -0.41739,-3.54885 -1.26556,-5.06636 -0.23039,-0.41222 -0.51014,-0.79448 -0.76532,-1.19166 -0.64236,-0.82985 -0.91661,-1.29241 -1.75442,-1.942 -0.945056,-0.73275 -2.466246,-1.4017 -3.673147,-1.56063 -0.17562,-0.0231 -0.60226,-0.0482 -1.091922,-0.0362 z m 0.401524,0.43201 c 0.192048,0.007 0.422958,0.0369 1.019577,0.12299 0.43116,0.0622 0.759012,0.22211 1.142562,0.4253 1.19624,0.63374 2.142916,1.49086 2.900586,2.61948 0.25462,0.39277 0.53409,0.77018 0.76378,1.17822 0.84252,1.49672 1.37334,3.26568 1.25625,5.00021 -0.0268,0.3975 -0.13054,0.78579 -0.19585,1.17874 -0.11402,0.40486 -0.2049,0.8174 -0.3421,1.21491 -0.89835,2.60287 -2.66685,4.78167 -4.561466,6.71949 -1.239039,1.1339 -1.835717,1.73846 -3.198768,2.74298 -2.117289,1.56039 -4.466715,2.81154 -6.914306,3.7543 -0.576485,0.18696 -1.143156,0.40684 -1.729092,0.5612 -1.417823,0.3735 -3.172095,0.64207 -4.645197,0.55656 -0.04606,-0.003 -0.07504,-0.006 -0.119372,-0.009 0.445466,-2.71 0.902594,-5.42105 1.559078,-8.0884 0.491258,-1.99601 0.965624,-3.51459 1.674834,-5.43533 0.332494,-0.90048 0.706371,-1.78532 1.059365,-2.67787 1.010436,-2.05873 1.391555,-3.08582 2.75694,-4.91236 1.32226,-1.76887 3.079342,-3.34027 5.041551,-4.35736 0.5428,-0.28136 1.026472,-0.48868 1.745631,-0.58032 0.440623,-0.006 0.593952,-0.021 0.785997,-0.0139 z m -28.079939,48.97479 c 0.47748,0.0118 0.94758,0.089 1.48363,0.24133 0.45734,0.1358 1.38275,0.50717 1.79937,0.75344 0.31632,0.18699 0.60123,0.42339 0.90176,0.63511 1.16738,0.96353 2.12189,2.13688 3.07526,3.30574 -0.56611,1.89302 -1.2255,3.7565 -1.99419,5.57899 -0.56327,1.33543 -1.19712,2.70106 -1.94459,3.94704 -0.31387,0.5232 -0.67947,1.01311 -1.01906,1.5198 -0.36045,0.40756 -0.69215,0.84251 -1.08107,1.22267 -0.90986,0.88936 -2.07223,1.67646 -3.30677,2.02365 -0.58846,0.10998 -1.76894,-0.0767 -2.02572,-0.18655 -2.27248,-1.07695 -3.19763,-3.89058 -3.94394,-6.08439 -0.14094,-0.53603 -0.32469,-1.06254 -0.42272,-1.60817 -0.28712,-1.59813 -0.27018,-3.32074 0.17777,-4.88859 0.34876,-1.22066 0.65893,-1.61911 1.27538,-2.70784 1.36396,-1.84731 3.28615,-3.05035 5.4963,-3.60134 0.56577,-0.10923 1.0511,-0.16268 1.52859,-0.15089 z m 42.347794,23.76289 c 0.0634,1.08296 0.1237,2.16627 0.17518,3.24993 0.13487,3.76695 0.2645,7.53691 0.27595,11.30681 0.007,2.37637 -0.0393,4.16834 -0.0837,6.54016 -0.62491,7.14137 -1.04931,14.1413 -2.77916,20.21996 -0.71357,3.68496 -4.70177,11.79464 -10.273264,11.8091 -8.28831,-1.93173 -8.334099,-9.16167 -8.77621,-16.70028 -0.08956,-5.19062 0.696045,-10.37314 2.449465,-15.26211 0.286618,-0.79916 0.635669,-1.57445 0.953428,-2.36162 1.59312,-3.61297 3.834236,-6.61704 6.414075,-9.55342 2.218486,-2.31722 4.718366,-4.3257 7.245546,-6.28592 1.38791,-1.10886 2.87259,-2.06899 4.3987,-2.96261 z"
       sodipodi:nodetypes="sasscssccsccszccccacccscccccsscsascssccscscscccccccscccccccccscsccccscccccccccccsccccccccsccscscscsscsssscscsccccscsscsscsscssccccsscscccssccscccccccsccccccc" />
    <ellipse
       style="fill:#ffffff;fill-rule:evenodd;stroke-width:0.120559"
       id="path179"
       cx="114.35192"
       cy="119.36722"
       rx="1.4172448"
       ry="1.4231997" />
    <path
       id="path993"
       style="fill:#ffffff;stroke:#fefefe;stroke-width:1.89354;stroke-linecap:round;stroke-linejoin:round;stroke-miterlimit:4;stroke-dasharray:0.189354, 0.18935399999999999;stroke-dashoffset:0;stroke-opacity:1"
       d="M 575.51804 510.93657 C 559.09745 591.26308 498.72342 656.86489 416.67685 677.60222 "
       transform="scale(0.26458333)" />
    <path
       id="path1021"
       style="fill:#ffffff;stroke:#fefefe;stroke-width:1.89354;stroke-linecap:round;stroke-linejoin:round;stroke-miterlimit:4;stroke-dasharray:0.189354, 0.18935399999999999;stroke-dashoffset:0;stroke-opacity:1"
       d="M 172.00702 360.24207 C 209.29967 293.73833 280.47294 248.79473 362.14335 248.79473 C 482.45295 248.79472 579.98318 346.32494 579.98318 466.63454 L 579.98318 466.63454 C 579.98318 467.66447 579.97608 468.69302 579.96192 469.72013 "
       transform="scale(0.26458333)" />
    <path
       id="path1014"
       style="fill:#ffffff;stroke:#ffffff;stroke-width:1.89354;stroke-linecap:round;stroke-linejoin:round;stroke-miterlimit:4;stroke-dasharray:0.189354, 0.18935399999999999;stroke-dashoffset:0;stroke-opacity:1"
       d="M 335.82003 682.8781 C 226.4979 669.57032 144.30352 576.76368 144.30351 466.63455 C 144.30351 444.10785 147.72278 422.37976 154.07064 401.94098 "
       transform="scale(0.26458333)" />
  </g>
</svg>
